Coordinates
version=1
nRows=24
nColumns=24
inDegrees=yes

Units are S.I. units (second, meters, Newtons, ...)
Angles are in degrees.

endheader
time	pelvis_tilt	pelvis_list	pelvis_rotation	pelvis_tx	pelvis_ty	pelvis_tz	hip_flexion_r	hip_adduction_r	hip_rotation_r	knee_angle_r	ankle_angle_r	subtalar_angle_r	mtp_angle_r	hip_flexion_l	hip_adduction_l	hip_rotation_l	knee_angle_l	ankle_angle_l	subtalar_angle_l	mtp_angle_l	lumbar_extension	lumbar_bending	lumbar_rotation
      2.13000000	      7.82813393	      8.51043309	     -3.22030926	      0.12517497	      0.99677295	      0.04067434	      6.12919244	     -7.43322810	     -9.83685751	    -19.45279869	      5.94148710	      0.05684480	     -8.92299863	     10.23662439	      6.49654208	     -7.20152859	    -57.57352487	      4.46313640	      4.27166875	     49.11677901	    -23.61830563	     -6.56128198	      1.05769613
      2.13500000	      7.92994005	      8.57242331	     -3.23459865	      0.12980206	      0.99759483	      0.04099294	      5.58518376	     -7.49557229	     -9.92629156	    -19.21668812	      6.08654507	      0.13346273	     -8.87386615	     10.55244662	      6.51600247	     -7.38789198	    -57.07981200	      4.82922887	      4.32977989	     47.75855269	    -23.74085667	     -6.64800627	      1.08298544
      2.14000000	      7.91360783	      8.63884154	     -3.32480611	      0.13432619	      0.99816906	      0.04139721	      5.24259247	     -7.55177246	     -9.88502904	    -19.07103251	      6.26315246	      0.24218686	     -8.83432889	     10.99395017	      6.50832824	     -7.68922220	    -56.53152312	      5.06599725	      4.25901035	     47.62125351	    -23.73175484	     -6.76612957	      1.20970330
      2.14500000	      8.02343214	      8.69905542	     -3.35099228	      0.13894604	      0.99895841	      0.04172625	      4.69778174	     -7.61481032	     -9.96765151	    -18.84566941	      6.40989196	      0.34114883	     -8.74778680	     11.25764756	      6.52589553	     -7.89549797	    -55.90330896	      5.34006669	      4.22943152	     46.83519382	    -23.86463305	     -6.85718797	      1.24543709
      2.15000000	      8.03360207	      8.77320960	     -3.43403849	      0.14348260	      0.99953386	      0.04212239	      4.32042220	     -7.68416170	     -9.94487062	    -18.69289982	      6.58518751	      0.44539196	     -8.70093830	     11.62596506	      6.53310394	     -8.19140281	    -55.23016801	      5.52257246	      4.12458471	     46.68452010	    -23.88415589	     -6.98382721	      1.35584897
      2.15500000	      8.11947082	      8.85048001	     -3.50054481	      0.14807599	      1.00022172	      0.04249977	      3.83081437	     -7.76569915	     -9.97949049	    -18.50139173	      6.75969637	      0.57855926	     -8.63797862	     11.87677545	      6.55925195	     -8.45835233	    -54.47615315	      5.68276285	      4.00170533	     46.41205100	    -23.98602486	     -7.10867555	      1.43527539
      2.16000000	      8.27865645	      8.88513223	     -3.48769273	      0.15274553	      1.00102564	      0.04280717	      3.19544016	     -7.80819192	    -10.15769723	    -18.23087296	      6.86318863	      0.72384064	     -8.53008251	     12.01740363	      6.56135874	     -8.62878367	    -53.67668652	      5.88586846	      3.97302403	     45.78063564	    -24.17275189	     -7.16379949	      1.42611280
      2.16500000	      8.29549993	      8.95399312	     -3.56357919	      0.15727292	      1.00152184	      0.04322384	      2.81174392	     -7.87468970	    -10.16259133	    -18.08487250	      7.06980387	      0.83894915	     -8.46540884	     12.31846153	      6.56895305	     -8.91672857	    -52.84174946	      6.00233892	      3.86484632	     45.58505570	    -24.20181125	     -7.28940128	      1.52923735
      2.17000000	      8.47047511	      8.99160003	     -3.56610896	      0.16194408	      1.00228502	      0.04357131	      2.16467729	     -7.92205653	    -10.35405762	    -17.81917653	      7.19393934	      1.03037339	     -8.35309600	     12.39613726	      6.57844870	     -9.10046853	    -51.92490401	      6.14609089	      3.80725055	     45.07216091	    -24.40311563	     -7.35823038	      1.53515368
      2.17500000	      8.49261783	      9.05441620	     -3.63886946	      0.16645513	      1.00271306	      0.04400068	      1.77876740	     -7.98618975	    -10.39617391	    -17.67929100	      7.39984466	      1.17333778	     -8.28392158	     12.65116989	      6.58305791	     -9.38597247	    -50.98923016	      6.22141113	      3.72885756	     44.88427492	    -24.44063334	     -7.47919546	      1.62671510
      2.18000000	      8.64851246	      9.08425647	     -3.64694947	      0.17109594	      1.00336984	      0.04436334	      1.16097464	     -8.02437483	    -10.58661317	    -17.42401735	      7.55008381	      1.40030372	     -8.17925193	     12.71286601	      6.59060740	     -9.56297642	    -49.97499219	      6.30199838	      3.67553983	     44.48976510	    -24.62264447	     -7.54483733	      1.64845236
      2.18500000	      8.68956718	      9.14254098	     -3.71608125	      0.17561738	      1.00376565	      0.04483368	      0.75380020	     -8.08719326	    -10.69962939	    -17.28668225	      7.75711302	      1.57378034	     -8.10479470	     12.89844008	      6.59114013	     -9.85254478	    -48.93015243	      6.33074795	      3.65103673	     44.29525162	    -24.68085345	     -7.66831302	      1.71374220
      2.19000000	      8.79370742	      9.18258326	     -3.76362366	      0.18019173	      1.00423379	      0.04525511	      0.24103901	     -8.13725402	    -10.87074965	    -17.09766249	      7.94644417	      1.81523009	     -8.02136565	     12.98237544	      6.59724453	    -10.08881237	    -47.82283679	      6.35631695	      3.63028643	     44.05693250	    -24.80665677	     -7.76310355	      1.77214328
      2.19500000	      8.92183401	      9.19602367	     -3.76453873	      0.18478936	      1.00471529	      0.04563630	     -0.32420093	     -8.15664786	    -11.12841045	    -16.88176030	      8.08531272	      2.03053516	     -7.92250222	     13.01609715	      6.58953229	    -10.27221938	    -46.67595754	      6.38782568	      3.63830728	     43.71416557	    -24.96234617	     -7.81499398	      1.78389169
      2.20000000	      8.97500815	      9.23325368	     -3.82713358	      0.18931365	      1.00501798	      0.04606330	     -0.75146104	     -8.20163359	    -11.26637512	    -16.73323662	      8.28767335	      2.26379265	     -7.84085670	     13.11886226	      6.59520841	    -10.51695332	    -45.47877669	      6.37345376	      3.66560654	     43.50941368	    -25.03310117	     -7.91318118	      1.87360210
      2.20500000	      9.04516325	      9.26235639	     -3.87351498	      0.19384725	      1.00530896	      0.04648103	     -1.20236793	     -8.23836154	    -11.45640653	    -16.58309365	      8.47473358	      2.48712442	     -7.76180535	     13.17861846	      6.59647166	    -10.75685202	    -44.23474018	      6.32458623	      3.72169564	     43.31662836	    -25.12555451	     -7.99946341	      1.92644270
      2.21000000	      9.05901289	      9.29951624	     -3.93446947	      0.19832130	      1.00544682	      0.04691826	     -1.55754392	     -8.27852887	    -11.57381556	    -16.48339893	      8.71621209	      2.66854249	     -7.69551458	     13.28740408	      6.59944788	    -11.01764112	    -42.95322568	      6.24629137	      3.82491593	     43.21135517	    -25.15949073	     -8.09993284	      1.97018250
      2.21500000	      9.16474188	      9.31600475	     -3.98760618	      0.20286518	      1.00570710	      0.04727237	     -2.04452313	     -8.30943348	    -11.77618040	    -16.33768094	      8.90084702	      2.90394267	     -7.62360605	     13.25351876	      6.61344386	    -11.23460655	    -41.59581382	      6.16403220	      3.89432476	     43.06848682	    -25.28896808	     -8.17123701	      2.07203018
      2.22000000	      9.17050208	      9.35329367	     -4.05191145	      0.20734241	      1.00575567	      0.04767771	     -2.38031499	     -8.35028311	    -11.87578963	    -16.25350027	      9.13870656	      3.07297022	     -7.56205155	     13.32029544	      6.62906136	    -11.49717334	    -40.21031597	      6.03237763	      4.03744155	     42.99133101	    -25.31434898	     -8.27204993	      2.10889238
      2.22500000	      9.27659236	      9.36653340	     -4.12171621	      0.21187518	      1.00593070	      0.04798731	     -2.84657121	     -8.38247116	    -12.04851317	    -16.13740670	      9.33157237	      3.28984948	     -7.49492188	     13.23515638	      6.65235773	    -11.72939313	    -38.74854281	      5.88516583	      4.15706384	     42.90145740	    -25.44370938	     -8.34223912	      2.23363278
      2.23000000	      9.31522651	      9.38683121	     -4.19136707	      0.21637473	      1.00596068	      0.04830466	     -3.21733341	     -8.41366655	    -12.15541030	    -16.05435892	      9.54213646	      3.45526201	     -7.43045067	     13.20715029	      6.67717498	    -11.97767513	    -37.24988974	      5.69624395	      4.32684164	     42.84453377	    -25.50347177	     -8.42044699	      2.31470529
      2.23500000	      9.36054167	      9.40168094	     -4.25691410	      0.22088352	      1.00596118	      0.04859781	     -3.59663298	     -8.43806349	    -12.25084177	    -15.97029585	      9.74646549	      3.59755604	     -7.36214491	     13.14484508	      6.70542190	    -12.22288380	    -35.70088385	      5.47672842	      4.51561773	     42.81290122	    -25.57097614	     -8.49084203	      2.37863167
      2.24000000	      9.33338371	      9.42162130	     -4.34540567	      0.22533023	      1.00577555	      0.04886395	     -3.85178783	     -8.46995296	    -12.27432139	    -15.95288829	     10.00458012	      3.70289212	     -7.30144131	     13.15175691	      6.73462741	    -12.50099708	    -34.12689262	      5.25233645	      4.74068407	     42.79407360	    -25.55997593	     -8.57080856	      2.48724383
      2.24500000	      9.37994864	      9.41798566	     -4.44264821	      0.22980903	      1.00568872	      0.04910208	     -4.20189119	     -8.48467220	    -12.32202945	    -15.91079042	     10.22641029	      3.81825406	     -7.23370052	     13.03673426	      6.75855524	    -12.76876032	    -32.47796541	      4.98101098	      4.98036488	     42.79022309	    -25.62711072	     -8.62870772	      2.65411085
